<?xml version="1.0" standalone="no"?>
<!DOCTYPE svg PUBLIC "-//W3C//DTD SVG 20010904//EN"
 "http://www.w3.org/TR/2001/REC-SVG-20010904/DTD/svg10.dtd">
<svg version="1.0" xmlns="http://www.w3.org/2000/svg"
 width="612.000000pt" height="231.000000pt" viewBox="0 0 612.000000 231.000000"
 preserveAspectRatio="xMidYMid meet">

<g transform="translate(0.000000,231.000000) scale(0.100000,-0.100000)"
fill="#000000" stroke="none">
<path d="M1257 1746 c-9 -20 -13 -36 -9 -36 12 0 35 46 30 60 -2 6 -11 -5 -21
-24z"/>
<path d="M860 1720 c0 -16 23 -60 32 -60 11 0 10 7 -7 40 -16 30 -25 38 -25
20z"/>
<path d="M1180 1635 c0 -8 7 -15 15 -15 8 0 15 7 15 15 0 8 -7 15 -15 15 -8 0
-15 -7 -15 -15z"/>
<path d="M921 1580 c0 -8 10 -37 24 -65 14 -27 22 -39 18 -25 -10 39 -42 107
-42 90z"/>
<path d="M1142 1568 c-16 -20 -45 -98 -39 -104 5 -6 67 94 67 109 0 11 -16 8
-28 -5z"/>
<path d="M2010 1090 l0 -390 245 0 245 0 0 90 0 90 -160 0 -161 0 3 61 3 62
113 -2 112 -2 0 90 0 91 -115 0 -115 0 0 65 0 65 160 0 160 0 0 85 0 85 -245
0 -245 0 0 -390z"/>
<path d="M2674 1458 c3 -13 52 -188 108 -390 l102 -368 87 0 87 0 11 33 c22
69 201 725 201 736 0 7 -28 11 -85 11 l-84 0 -9 -32 c-68 -252 -117 -426 -120
-423 -2 1 -28 90 -57 196 -30 106 -60 208 -66 226 l-11 33 -85 0 c-84 0 -85 0
-79 -22z"/>
<path d="M3440 1090 l0 -390 247 2 248 3 3 88 3 87 -161 0 -160 0 0 60 c0 69
-15 62 143 60 l88 -1 -3 88 -3 88 -112 3 -113 3 0 64 0 65 159 0 158 0 2 85 2
85 -250 0 -250 0 -1 -390z"/>
<path d="M4100 1090 l0 -390 235 0 235 0 0 91 0 90 -145 -3 -145 -3 0 303 0
302 -90 0 -90 0 0 -390z"/>
<path d="M4743 1468 c3 -7 51 -115 106 -239 l101 -227 0 -151 0 -151 90 0 90
0 0 152 0 151 105 233 c58 128 105 236 105 239 0 3 -39 4 -87 3 l-86 -3 -63
-140 -63 -140 -35 75 c-18 41 -48 105 -64 143 l-31 67 -86 0 c-66 0 -86 -3
-82 -12z"/>
<path d="M604 1449 c27 -11 50 -18 53 -16 5 6 -73 37 -90 36 -6 0 10 -9 37
-20z"/>
<path d="M1420 1455 c-39 -9 -46 -13 -25 -13 17 0 48 5 70 13 51 16 27 17 -45
0z"/>
<path d="M720 1411 c0 -10 46 -31 67 -31 25 0 3 19 -35 29 -18 5 -32 6 -32 2z"/>
<path d="M1172 1325 c8 -11 45 -54 82 -97 37 -42 68 -79 67 -82 0 -3 12 -18
28 -35 15 -16 45 -55 67 -86 35 -52 39 -63 39 -120 0 -80 -13 -97 -69 -89 -73
11 -108 39 -176 140 -35 52 -65 94 -67 94 -5 0 0 -9 63 -110 60 -96 99 -127
173 -139 56 -9 45 2 179 -173 45 -60 82 -115 82 -122 0 -8 -10 -20 -22 -29
-13 -8 -21 -17 -18 -20 3 -3 33 15 68 40 35 25 61 47 59 49 -2 2 -17 -2 -35
-8 -17 -7 -33 -10 -35 -8 -2 3 -45 67 -96 143 l-93 137 7 60 c10 83 -4 115
-97 232 -68 85 -248 280 -206 223z"/>
<path d="M858 1273 c-35 -38 -126 -165 -178 -247 -49 -77 -61 -142 -40 -206
12 -37 12 -39 -58 -161 -39 -68 -76 -136 -83 -151 -13 -29 -41 -36 -69 -19 -8
6 -18 7 -23 4 -5 -3 22 -23 59 -44 75 -42 106 -51 62 -18 -16 11 -28 26 -28
32 0 18 174 290 191 298 8 4 33 12 56 18 60 16 99 54 139 132 42 84 37 92 -6
12 -39 -73 -59 -97 -96 -115 -78 -40 -117 -30 -134 34 -17 60 -5 103 56 200
l55 87 68 -6 c38 -3 90 -2 117 3 45 8 40 9 -63 14 l-111 5 59 78 c62 82 69 94
27 50z"/>
<path d="M1167 1121 c-66 -6 -68 -7 -52 -26 9 -13 13 -14 10 -4 -5 13 5 16 62
17 37 1 82 6 98 11 29 9 29 9 -10 8 -22 0 -71 -3 -108 -6z"/>
</g>
</svg>
